<?xml version="1.0" encoding="UTF-8"?>
<!-- Generated by jsxcad -->
<!DOCTYPE svg PUBLIC "-//W3C//DTD SVG 1.1 Tiny//EN" "http://www.w3.org/Graphics/SVG/1.1/DTD/svg11-tiny.dtd">
<svg viewBox="-250 -250 500 500" width="500" height="500" xmlns="http://www.w3.org/2000/svg"><path d="M1.6135014426165406,-0.09970012756247539L2.9485242952621424e-17,0.10413249425226045L1.598561614733895,-0.09781278850819956z" style="fill:rgb(143,1,127)"/><path d="M-0.8056459184518319,160.85559332415963L0.8131754368781753,162.35796683421106L0.8056459184519388,160.85559332415963z" style="fill:rgb(127,254,127)"/><path d="M0.8131754368781753,162.35796683421106L2.3663160777281047,161.25630932308695L0.8056459184519388,160.85559332415963z" style="fill:rgb(159,250,127)"/><path d="M-2.3884315267031706,162.76242795932518L-0.8056459184518319,160.85559332415963L-2.3663160777279972,161.25630932308695z" style="fill:rgb(95,250,127)"/><path d="M2.3884315267032794,162.76242795932518L3.7783021999163195,162.03257022042183L2.3663160777281047,161.25630932308695z" style="fill:rgb(188,239,127)"/><path d="M-3.813613989659159,163.5459438585912L-2.3663160777279972,161.25630932308695L-3.7783021999162116,162.03257022042183z" style="fill:rgb(66,239,127)"/><path d="M3.8136139896592685,163.5459438585912L4.9528840588658385,163.13559089502064L3.7783021999163195,162.03257022042183z" style="fill:rgb(214,220,127)"/><path d="M-4.999173426405024,164.65927346232635L-3.7783021999162116,162.03257022042183L-4.95288405886573,163.13559089502064z" style="fill:rgb(40,220,127)"/><path d="M4.999173426405133,164.65927346232635L5.816258418714672,164.4960741113117L4.9528840588658385,163.13559089502064z" style="fill:rgb(235,195,127)"/><path d="M-5.870616840181842,166.03247187855868L-4.95288405886573,163.13559089502064L-5.816258418714563,164.4960741113117z" style="fill:rgb(19,195,127)"/><path d="M5.8706168401819525,166.03247187855868L6.314175895094376,166.02852622562986L5.816258418714672,164.4960741113117z" style="fill:rgb(248,166,127)"/><path d="M-6.3731878338351144,167.57924643380392L-5.816258418714563,164.4960741113117L-6.314175895094267,166.02852622562986z" style="fill:rgb(6,166,127)"/><path d="M6.3731878338352255,167.57924643380392L6.415350933441039,167.63666410046517L6.314175895094376,166.02852622562986z" style="fill:rgb(254,135,127)"/><path d="M-6.475308457840911,169.2024141203449L-6.314175895094267,166.02852622562986L-6.415350933440926,167.63666410046517z" style="fill:rgb(0,135,127)"/><path d="M2.9485242952621424e-17,0.10413249425226045L1.6135014426165406,-0.09970012756247539L2.9502611620045563e-17,0.10413249425226043z" style="fill:rgb(143,1,127)"/><path d="M0.8131754368781753,162.35796683421106L-0.8056459184518319,160.85559332415963L-0.8131754368780675,162.35796683421106z" style="fill:rgb(127,254,127)"/><path d="M-0.8056459184518319,160.85559332415963L-2.3884315267031706,162.76242795932518L-0.8131754368780675,162.35796683421106z" style="fill:rgb(95,250,127)"/><path d="M2.3663160777281047,161.25630932308695L0.8131754368781753,162.35796683421106L2.3884315267032794,162.76242795932518z" style="fill:rgb(159,250,127)"/><path d="M-2.3663160777279972,161.25630932308695L-3.813613989659159,163.5459438585912L-2.3884315267031706,162.76242795932518z" style="fill:rgb(66,239,127)"/><path d="M3.7783021999163195,162.03257022042183L2.3884315267032794,162.76242795932518L3.8136139896592685,163.5459438585912z" style="fill:rgb(188,239,127)"/><path d="M-3.7783021999162116,162.03257022042183L-4.999173426405024,164.65927346232635L-3.813613989659159,163.5459438585912z" style="fill:rgb(40,220,127)"/><path d="M4.9528840588658385,163.13559089502064L3.8136139896592685,163.5459438585912L4.999173426405133,164.65927346232635z" style="fill:rgb(214,220,127)"/><path d="M-4.95288405886573,163.13559089502064L-5.870616840181842,166.03247187855868L-4.999173426405024,164.65927346232635z" style="fill:rgb(19,195,127)"/><path d="M5.816258418714672,164.4960741113117L4.999173426405133,164.65927346232635L5.8706168401819525,166.03247187855868z" style="fill:rgb(235,195,127)"/><path d="M-5.816258418714563,164.4960741113117L-6.3731878338351144,167.57924643380392L-5.870616840181842,166.03247187855868z" style="fill:rgb(6,166,127)"/><path d="M6.314175895094376,166.02852622562986L5.8706168401819525,166.03247187855868L6.3731878338352255,167.57924643380392z" style="fill:rgb(248,166,127)"/><path d="M-6.314175895094267,166.02852622562986L-6.475308457840911,169.2024141203449L-6.3731878338351144,167.57924643380392z" style="fill:rgb(0,135,127)"/><path d="M6.415350933441039,167.63666410046517L6.3731878338352255,167.57924643380392L6.475308457841025,169.2024141203449z" style="fill:rgb(254,135,127)"/><path d="M-0.8131617573084973,-12.820703225654507L2.7626795538237197e-17,0.10413249425226043L0.8131617573084886,-12.820703225654507zM0.8131617573084886,-12.820703225654507L1.6135014426165406,-0.09970012756247539L2.388391347530651,-12.416253388160765zM-2.388391347530659,-12.416253388160765L-1.6135014426165406,-0.09970012756247434L-0.8131617573084973,-12.820703225654507zM2.388391347530651,-12.416253388160765L3.1256204610196874,-0.6983904201338604L3.813549835478054,-11.63276694363955zM-3.813549835478062,-11.632766943639547L-3.1256204610196874,-0.6983904201338583L-2.388391347530659,-12.416253388160765zM3.813549835478054,-11.63276694363955L4.44134504754551,-1.65432040948821L4.999089328247801,-10.519473250509204zM-4.999089328247808,-10.5194732505092L-4.441345047545511,-1.6543204094882074L-3.813549835478062,-11.632766943639547zM4.999089328247801,-10.519473250509204L5.478002989383651,-2.9074250977028493L5.870518082229323,-9.146324128628436zM-5.870518082229328,-9.146324128628432L-5.478002989383652,-2.9074250977028457L-4.999089328247808,-10.5194732505092zM5.870518082229323,-9.146324128628436L6.170457790951835,-4.3789673655024055L6.37308062141076,-7.599598520198441zM-6.373080621410765,-7.599598520198436L-6.170457790951839,-4.378967365502401L-5.870518082229328,-9.146324128628432zM6.37308062141076,-7.599598520198441L6.170457790951835,-4.3789673655024055L6.475199527484324,-5.9764846709805735zM-6.170457790951839,-4.378967365502401L-6.373080621410765,-7.599598520198436L-6.475199527484326,-5.97648467098057zM5.870518082229323,-9.146324128628436L5.478002989383651,-2.9074250977028493L6.170457790951835,-4.3789673655024055zM-5.870518082229328,-9.146324128628432L-6.170457790951839,-4.378967365502401L-5.478002989383652,-2.9074250977028457zM4.999089328247801,-10.519473250509204L4.44134504754551,-1.65432040948821L5.478002989383651,-2.9074250977028493zM-4.999089328247808,-10.5194732505092L-5.478002989383652,-2.9074250977028457L-4.441345047545511,-1.6543204094882074zM3.813549835478054,-11.63276694363955L3.1256204610196874,-0.6983904201338604L4.44134504754551,-1.65432040948821zM-3.813549835478062,-11.632766943639547L-4.441345047545511,-1.6543204094882074L-3.1256204610196874,-0.6983904201338583zM2.388391347530651,-12.416253388160765L1.6135014426165406,-0.09970012756247539L3.1256204610196874,-0.6983904201338604zM-2.388391347530659,-12.416253388160765L-3.1256204610196874,-0.6983904201338583L-1.6135014426165406,-0.09970012756247434zM0.8131617573084886,-12.820703225654507L2.7626795538237197e-17,0.10413249425226043L1.6135014426165406,-0.09970012756247539zM-0.8131617573084973,-12.820703225654507L-1.6135014426165406,-0.09970012756247434L2.7626795538237197e-17,0.10413249425226043zM5.261132096447281e-14,162.306807448045L9.732008857282512,0.1041324942522572L-1.4129999123565714e-15,0.10413249425223736zM9.732008857282512,0.1041324942522572L5.261132096447281e-14,162.306807448045L9.732160448566813,162.306807448045zM-0.8131754368780675,162.35796683421106L5.837399028461467e-14,175.28323973947104L0.8131754368781753,162.35796683421106zM0.8131754368781753,162.35796683421106L1.6135285860885116,175.07940608465816L2.3884315267032794,162.76242795932518zM-2.3884315267031706,162.76242795932518L-1.6135285860883957,175.07940608465816L-0.8131754368780675,162.35796683421106zM2.3884315267032794,162.76242795932518L3.1256730424310692,174.4806888568131L3.8136139896592685,163.5459438585912zM-3.813613989659159,163.5459438585912L-3.125673042430953,174.4806888568131L-2.3884315267031706,162.76242795932518zM-4.999173426405024,164.65927346232635L-4.441419763008123,173.52473385899194L-3.813613989659159,163.5459438585912zM3.8136139896592685,163.5459438585912L4.4414197630082395,173.52473385899194L4.999173426405133,164.65927346232635zM-5.870616840181842,166.03247187855868L-5.478095144231376,172.27158623573388L-4.999173426405024,164.65927346232635zM4.999173426405133,164.65927346232635L5.4780951442314905,172.27158623573388L5.8706168401819525,166.03247187855868zM5.8706168401819525,166.03247187855868L6.170561594747804,170.79999020286036L6.3731878338352255,167.57924643380392zM-6.3731878338351144,167.57924643380392L-6.17056159474769,170.79999020286036L-5.870616840181842,166.03247187855868zM6.3731878338352255,167.57924643380392L6.170561594747804,170.79999020286036L6.475308457841025,169.2024141203449zM-6.17056159474769,170.79999020286036L-6.3731878338351144,167.57924643380392L-6.475308457840911,169.2024141203449zM5.8706168401819525,166.03247187855868L5.4780951442314905,172.27158623573388L6.170561594747804,170.79999020286036zM-5.870616840181842,166.03247187855868L-6.17056159474769,170.79999020286036L-5.478095144231376,172.27158623573388zM4.999173426405133,164.65927346232635L4.4414197630082395,173.52473385899194L5.4780951442314905,172.27158623573388zM-4.999173426405024,164.65927346232635L-5.478095144231376,172.27158623573388L-4.441419763008123,173.52473385899194zM3.8136139896592685,163.5459438585912L3.1256730424310692,174.4806888568131L4.4414197630082395,173.52473385899194zM-3.813613989659159,163.5459438585912L-4.441419763008123,173.52473385899194L-3.125673042430953,174.4806888568131zM2.3884315267032794,162.76242795932518L1.6135285860885116,175.07940608465816L3.1256730424310692,174.4806888568131zM-2.3884315267031706,162.76242795932518L-3.125673042430953,174.4806888568131L-1.6135285860883957,175.07940608465816zM-0.8131754368780675,162.35796683421106L-1.6135285860883957,175.07940608465816L5.837399028461467e-14,175.28323973947104zM0.8131754368781753,162.35796683421106L5.837399028461467e-14,175.28323973947104L1.6135285860885116,175.07940608465816z" style="fill:rgb(127,127,254)"/></svg>
