solid JSxCAD
facet normal -0.06279305350789254 -0.9980265690006228 0
outer loop
vertex 51.62524 -1.96457 0
vertex 52.12558 -1.99605 3
vertex 51.62524 -1.96457 3
endloop
endfacet
facet normal -0.06279305350789728 -0.9980265690006226 0
outer loop
vertex 52.12558 -1.99605 3
vertex 51.62524 -1.96457 0
vertex 52.12558 -1.99605 0
endloop
endfacet
facet normal -0.30901390710210436 -0.951057519405368 0
outer loop
vertex 51.14844 -1.80965 0
vertex 51.62524 -1.96457 3
vertex 51.14844 -1.80965 3
endloop
endfacet
facet normal -0.30901390710209325 -0.9510575194053716 0
outer loop
vertex 51.62524 -1.96457 3
vertex 51.14844 -1.80965 0
vertex 51.62524 -1.96457 0
endloop
endfacet
facet normal -0.5358154154470987 -0.8443351470649868 0
outer loop
vertex 50.72515 -1.54103 0
vertex 51.14844 -1.80965 3
vertex 50.72515 -1.54103 3
endloop
endfacet
facet normal -0.5358154154470817 -0.8443351470649979 0
outer loop
vertex 51.14844 -1.80965 3
vertex 50.72515 -1.54103 0
vertex 51.14844 -1.80965 0
endloop
endfacet
facet normal -0.7289783654809283 -0.6845367358007562 0
outer loop
vertex 50.38197 -1.17557 0
vertex 50.72515 -1.54103 3
vertex 50.38197 -1.17557 3
endloop
endfacet
facet normal -0.7289783654809283 -0.6845367358007562 0
outer loop
vertex 50.72515 -1.54103 3
vertex 50.38197 -1.17557 0
vertex 50.72515 -1.54103 0
endloop
endfacet
facet normal -0.8763051759097715 -0.48175641010135445 0
outer loop
vertex 50.14045 -0.73625 0
vertex 50.38197 -1.17557 3
vertex 50.14045 -0.73625 3
endloop
endfacet
facet normal -0.8763051759097715 -0.48175641010135445 0
outer loop
vertex 50.38197 -1.17557 3
vertex 50.14045 -0.73625 0
vertex 50.38197 -1.17557 0
endloop
endfacet
facet normal -0.9685811207458346 -0.2486978337958401 0
outer loop
vertex 50.01577 -0.25067 0
vertex 50.14045 -0.73625 3
vertex 50.01577 -0.25067 3
endloop
endfacet
facet normal -0.9685811207458255 -0.24869783379587557 0
outer loop
vertex 50.14045 -0.73625 3
vertex 50.01577 -0.25067 0
vertex 50.14045 -0.73625 0
endloop
endfacet
facet normal -1 0 0
outer loop
vertex 50.01577 -0.25067 0
vertex 50.01577 0.25067 3
vertex 50.01577 0.25067 0
endloop
endfacet
facet normal -1 0 0
outer loop
vertex 50.01577 0.25067 3
vertex 50.01577 -0.25067 0
vertex 50.01577 -0.25067 3
endloop
endfacet
facet normal -0.9685811207458255 0.24869783379587557 0
outer loop
vertex 50.14045 0.73625 0
vertex 50.01577 0.25067 3
vertex 50.14045 0.73625 3
endloop
endfacet
facet normal -0.9685811207458346 0.2486978337958401 0
outer loop
vertex 50.01577 0.25067 3
vertex 50.14045 0.73625 0
vertex 50.01577 0.25067 0
endloop
endfacet
facet normal -0.8763051759097715 0.48175641010135445 0
outer loop
vertex 50.38197 1.17557 0
vertex 50.14045 0.73625 3
vertex 50.38197 1.17557 3
endloop
endfacet
facet normal -0.8763051759097715 0.48175641010135445 0
outer loop
vertex 50.14045 0.73625 3
vertex 50.38197 1.17557 0
vertex 50.14045 0.73625 0
endloop
endfacet
facet normal -0.7289783654809283 0.6845367358007562 0
outer loop
vertex 50.72515 1.54103 0
vertex 50.38197 1.17557 3
vertex 50.72515 1.54103 3
endloop
endfacet
facet normal -0.7289783654809283 0.6845367358007562 0
outer loop
vertex 50.38197 1.17557 3
vertex 50.72515 1.54103 0
vertex 50.38197 1.17557 0
endloop
endfacet
facet normal -0.5358154154470817 0.8443351470649979 0
outer loop
vertex 51.14844 1.80965 0
vertex 50.72515 1.54103 3
vertex 51.14844 1.80965 3
endloop
endfacet
facet normal -0.5358154154470987 0.8443351470649868 0
outer loop
vertex 50.72515 1.54103 3
vertex 51.14844 1.80965 0
vertex 50.72515 1.54103 0
endloop
endfacet
facet normal -0.30901390710209325 0.9510575194053716 0
outer loop
vertex 51.62524 1.96457 0
vertex 51.14844 1.80965 3
vertex 51.62524 1.96457 3
endloop
endfacet
facet normal -0.30901390710210436 0.951057519405368 0
outer loop
vertex 51.14844 1.80965 3
vertex 51.62524 1.96457 0
vertex 51.14844 1.80965 0
endloop
endfacet
facet normal -0.06279305350789728 0.9980265690006226 0
outer loop
vertex 52.12558 1.99605 0
vertex 51.62524 1.96457 3
vertex 52.12558 1.99605 3
endloop
endfacet
facet normal -0.06279305350789254 0.9980265690006228 0
outer loop
vertex 51.62524 1.96457 3
vertex 52.12558 1.99605 0
vertex 51.62524 1.96457 0
endloop
endfacet
facet normal 0.18738158099187288 0.9822871999089605 0
outer loop
vertex 52.61803 1.90211 0
vertex 52.12558 1.99605 3
vertex 52.61803 1.90211 3
endloop
endfacet
facet normal 0.18738158099187288 0.9822871999089605 0
outer loop
vertex 52.12558 1.99605 3
vertex 52.61803 1.90211 0
vertex 52.12558 1.99605 0
endloop
endfacet
facet normal 0.4257672569689547 0.9048327154193377 0
outer loop
vertex 53.07165 1.68866 0
vertex 52.61803 1.90211 3
vertex 53.07165 1.68866 3
endloop
endfacet
facet normal 0.4257672569689547 0.9048327154193377 0
outer loop
vertex 52.61803 1.90211 3
vertex 53.07165 1.68866 0
vertex 52.61803 1.90211 0
endloop
endfacet
facet normal 0.6374276844345264 0.7705101862509267 0
outer loop
vertex 53.45794 1.36909 0
vertex 53.07165 1.68866 3
vertex 53.45794 1.36909 3
endloop
endfacet
facet normal 0.6374276844345079 0.770510186250942 0
outer loop
vertex 53.07165 1.68866 3
vertex 53.45794 1.36909 0
vertex 53.07165 1.68866 0
endloop
endfacet
facet normal 0.8090180553293774 0.5877837920112058 0
outer loop
vertex 53.75261 0.96351 0
vertex 53.45794 1.36909 3
vertex 53.75261 0.96351 3
endloop
endfacet
facet normal 0.8090180553293774 0.5877837920112058 0
outer loop
vertex 53.45794 1.36909 3
vertex 53.75261 0.96351 0
vertex 53.45794 1.36909 0
endloop
endfacet
facet normal 0.9297723367601479 0.36813503201349085 0
outer loop
vertex 53.93717 0.49738 0
vertex 53.75261 0.96351 3
vertex 53.93717 0.49738 3
endloop
endfacet
facet normal 0.929772336760135 0.36813503201352354 0
outer loop
vertex 53.75261 0.96351 3
vertex 53.93717 0.49738 0
vertex 53.75261 0.96351 0
endloop
endfacet
facet normal 0.9921156205448831 0.12532595689178402 0
outer loop
vertex 54 0 0
vertex 53.93717 0.49738 3
vertex 54 0 3
endloop
endfacet
facet normal 0.9921156205448831 0.12532595689178402 0
outer loop
vertex 53.93717 0.49738 3
vertex 54 0 0
vertex 53.93717 0.49738 0
endloop
endfacet
facet normal 0.9921156205448831 -0.12532595689178402 0
outer loop
vertex 53.93717 -0.49738 0
vertex 54 0 3
vertex 53.93717 -0.49738 3
endloop
endfacet
facet normal 0.9921156205448831 -0.12532595689178402 0
outer loop
vertex 54 0 3
vertex 53.93717 -0.49738 0
vertex 54 0 0
endloop
endfacet
facet normal 0.929772336760135 -0.36813503201352354 0
outer loop
vertex 53.75261 -0.96351 0
vertex 53.93717 -0.49738 3
vertex 53.75261 -0.96351 3
endloop
endfacet
facet normal 0.9297723367601479 -0.36813503201349085 0
outer loop
vertex 53.93717 -0.49738 3
vertex 53.75261 -0.96351 0
vertex 53.93717 -0.49738 0
endloop
endfacet
facet normal 0.8090180553293774 -0.5877837920112058 0
outer loop
vertex 53.45794 -1.36909 0
vertex 53.75261 -0.96351 3
vertex 53.45794 -1.36909 3
endloop
endfacet
facet normal 0.8090180553293774 -0.5877837920112058 0
outer loop
vertex 53.75261 -0.96351 3
vertex 53.45794 -1.36909 0
vertex 53.75261 -0.96351 0
endloop
endfacet
facet normal 0.6374276844345079 -0.770510186250942 0
outer loop
vertex 53.07165 -1.68866 0
vertex 53.45794 -1.36909 3
vertex 53.07165 -1.68866 3
endloop
endfacet
facet normal 0.6374276844345264 -0.7705101862509267 0
outer loop
vertex 53.45794 -1.36909 3
vertex 53.07165 -1.68866 0
vertex 53.45794 -1.36909 0
endloop
endfacet
facet normal 0.4257672569689547 -0.9048327154193377 0
outer loop
vertex 52.61803 -1.90211 0
vertex 53.07165 -1.68866 3
vertex 52.61803 -1.90211 3
endloop
endfacet
facet normal 0.4257672569689547 -0.9048327154193377 0
outer loop
vertex 53.07165 -1.68866 3
vertex 52.61803 -1.90211 0
vertex 53.07165 -1.68866 0
endloop
endfacet
facet normal 0.18738158099187288 -0.9822871999089605 0
outer loop
vertex 52.12558 -1.99605 0
vertex 52.61803 -1.90211 3
vertex 52.12558 -1.99605 3
endloop
endfacet
facet normal 0.18738158099187288 -0.9822871999089605 0
outer loop
vertex 52.61803 -1.90211 3
vertex 52.12558 -1.99605 0
vertex 52.61803 -1.90211 0
endloop
endfacet
facet normal 0 0 1
outer loop
vertex 51.62524 1.96457 3
vertex 52.61803 1.90211 3
vertex 52.12558 1.99605 3
endloop
endfacet
facet normal 0 0 1
outer loop
vertex 51.14844 1.80965 3
vertex 52.61803 1.90211 3
vertex 51.62524 1.96457 3
endloop
endfacet
facet normal 0 0 1
outer loop
vertex 51.14844 1.80965 3
vertex 53.07165 1.68866 3
vertex 52.61803 1.90211 3
endloop
endfacet
facet normal 0 0 1
outer loop
vertex 50.72515 1.54103 3
vertex 53.07165 1.68866 3
vertex 51.14844 1.80965 3
endloop
endfacet
facet normal 0 0 1
outer loop
vertex 50.72515 1.54103 3
vertex 53.45794 1.36909 3
vertex 53.07165 1.68866 3
endloop
endfacet
facet normal 0 0 1
outer loop
vertex 50.38197 1.17557 3
vertex 53.45794 1.36909 3
vertex 50.72515 1.54103 3
endloop
endfacet
facet normal 0 0 0.9999999999999999
outer loop
vertex 50.38197 1.17557 3
vertex 53.75261 0.96351 3
vertex 53.45794 1.36909 3
endloop
endfacet
facet normal 1.449371360318689e-16 0 1
outer loop
vertex 50.14045 0.73625 3
vertex 53.75261 0.96351 3
vertex 50.38197 1.17557 3
endloop
endfacet
facet normal 0 0 0.9999999999999999
outer loop
vertex 50.14045 0.73625 3
vertex 53.93717 0.49738 3
vertex 53.75261 0.96351 3
endloop
endfacet
facet normal 0 0 0.9999999999999999
outer loop
vertex 50.01577 0.25067 3
vertex 53.93717 0.49738 3
vertex 50.14045 0.73625 3
endloop
endfacet
facet normal 0 0 1
outer loop
vertex 50.01577 0.25067 3
vertex 54 0 3
vertex 53.93717 0.49738 3
endloop
endfacet
facet normal 0 0 1
outer loop
vertex 50.01577 -0.25067 3
vertex 54 0 3
vertex 50.01577 0.25067 3
endloop
endfacet
facet normal 0 0 1
outer loop
vertex 50.01577 -0.25067 3
vertex 53.93717 -0.49738 3
vertex 54 0 3
endloop
endfacet
facet normal 0 0 0.9999999999999999
outer loop
vertex 50.14045 -0.73625 3
vertex 53.93717 -0.49738 3
vertex 50.01577 -0.25067 3
endloop
endfacet
facet normal 0 0 0.9999999999999999
outer loop
vertex 50.14045 -0.73625 3
vertex 53.75261 -0.96351 3
vertex 53.93717 -0.49738 3
endloop
endfacet
facet normal 1.449371360318689e-16 0 1
outer loop
vertex 50.38197 -1.17557 3
vertex 53.75261 -0.96351 3
vertex 50.14045 -0.73625 3
endloop
endfacet
facet normal 0 0 0.9999999999999999
outer loop
vertex 50.38197 -1.17557 3
vertex 53.45794 -1.36909 3
vertex 53.75261 -0.96351 3
endloop
endfacet
facet normal 0 0 1
outer loop
vertex 50.72515 -1.54103 3
vertex 53.45794 -1.36909 3
vertex 50.38197 -1.17557 3
endloop
endfacet
facet normal 0 0 1
outer loop
vertex 50.72515 -1.54103 3
vertex 53.07165 -1.68866 3
vertex 53.45794 -1.36909 3
endloop
endfacet
facet normal 0 0 1
outer loop
vertex 51.14844 -1.80965 3
vertex 53.07165 -1.68866 3
vertex 50.72515 -1.54103 3
endloop
endfacet
facet normal 0 0 1
outer loop
vertex 51.14844 -1.80965 3
vertex 52.61803 -1.90211 3
vertex 53.07165 -1.68866 3
endloop
endfacet
facet normal 0 0 1
outer loop
vertex 51.62524 -1.96457 3
vertex 52.61803 -1.90211 3
vertex 51.14844 -1.80965 3
endloop
endfacet
facet normal 0 0 1
outer loop
vertex 52.61803 -1.90211 3
vertex 51.62524 -1.96457 3
vertex 52.12558 -1.99605 3
endloop
endfacet
facet normal 0 0 -1
outer loop
vertex 53.93717 -0.49738 0
vertex 53.93717 0.49738 0
vertex 54 0 0
endloop
endfacet
facet normal 0 0 -1
outer loop
vertex 53.75261 -0.96351 0
vertex 53.93717 0.49738 0
vertex 53.93717 -0.49738 0
endloop
endfacet
facet normal 0 0 -1
outer loop
vertex 53.75261 -0.96351 0
vertex 53.75261 0.96351 0
vertex 53.93717 0.49738 0
endloop
endfacet
facet normal 0 0 -1
outer loop
vertex 53.45794 -1.36909 0
vertex 53.75261 0.96351 0
vertex 53.75261 -0.96351 0
endloop
endfacet
facet normal 0 0 -1
outer loop
vertex 53.45794 -1.36909 0
vertex 53.45794 1.36909 0
vertex 53.75261 0.96351 0
endloop
endfacet
facet normal 0 0 -1
outer loop
vertex 53.07165 -1.68866 0
vertex 53.45794 1.36909 0
vertex 53.45794 -1.36909 0
endloop
endfacet
facet normal 0 0 -1
outer loop
vertex 53.07165 -1.68866 0
vertex 53.07165 1.68866 0
vertex 53.45794 1.36909 0
endloop
endfacet
facet normal 0 0 -1
outer loop
vertex 52.61803 -1.90211 0
vertex 53.07165 1.68866 0
vertex 53.07165 -1.68866 0
endloop
endfacet
facet normal 0 0 -0.9999999999999999
outer loop
vertex 52.61803 -1.90211 0
vertex 52.61803 1.90211 0
vertex 53.07165 1.68866 0
endloop
endfacet
facet normal 0 0 -1
outer loop
vertex 52.61803 -1.90211 0
vertex 52.12558 1.99605 0
vertex 52.61803 1.90211 0
endloop
endfacet
facet normal 0 0 -1
outer loop
vertex 52.12558 -1.99605 0
vertex 52.12558 1.99605 0
vertex 52.61803 -1.90211 0
endloop
endfacet
facet normal 0 0 -1
outer loop
vertex 51.62524 -1.96457 0
vertex 52.12558 1.99605 0
vertex 52.12558 -1.99605 0
endloop
endfacet
facet normal 0 0 -0.9999999999999999
outer loop
vertex 51.62524 -1.96457 0
vertex 51.62524 1.96457 0
vertex 52.12558 1.99605 0
endloop
endfacet
facet normal 0 0 -1
outer loop
vertex 51.14844 -1.80965 0
vertex 51.62524 1.96457 0
vertex 51.62524 -1.96457 0
endloop
endfacet
facet normal 0 0 -1
outer loop
vertex 51.14844 -1.80965 0
vertex 51.14844 1.80965 0
vertex 51.62524 1.96457 0
endloop
endfacet
facet normal 0 0 -0.9999999999999999
outer loop
vertex 50.72515 -1.54103 0
vertex 51.14844 1.80965 0
vertex 51.14844 -1.80965 0
endloop
endfacet
facet normal 0 0 -0.9999999999999999
outer loop
vertex 50.72515 -1.54103 0
vertex 50.72515 1.54103 0
vertex 51.14844 1.80965 0
endloop
endfacet
facet normal 0 0 -1
outer loop
vertex 50.38197 -1.17557 0
vertex 50.72515 1.54103 0
vertex 50.72515 -1.54103 0
endloop
endfacet
facet normal 0 0 -1
outer loop
vertex 50.38197 -1.17557 0
vertex 50.38197 1.17557 0
vertex 50.72515 1.54103 0
endloop
endfacet
facet normal 0 0 -1
outer loop
vertex 50.14045 -0.73625 0
vertex 50.38197 1.17557 0
vertex 50.38197 -1.17557 0
endloop
endfacet
facet normal 0 0 -1
outer loop
vertex 50.14045 -0.73625 0
vertex 50.14045 0.73625 0
vertex 50.38197 1.17557 0
endloop
endfacet
facet normal 0 0 -1
outer loop
vertex 50.01577 -0.25067 0
vertex 50.14045 0.73625 0
vertex 50.14045 -0.73625 0
endloop
endfacet
facet normal 0 0 -1
outer loop
vertex 50.14045 0.73625 0
vertex 50.01577 -0.25067 0
vertex 50.01577 0.25067 0
endloop
endfacet
facet normal -0.06279305350789417 -0.9980265690006228 0
outer loop
vertex -2.37476 -1.96457 0
vertex -1.87442 -1.99605 3
vertex -2.37476 -1.96457 3
endloop
endfacet
facet normal -0.06279305350789417 -0.9980265690006228 0
outer loop
vertex -1.87442 -1.99605 3
vertex -2.37476 -1.96457 0
vertex -1.87442 -1.99605 0
endloop
endfacet
facet normal -0.30901390710209675 -0.9510575194053706 0
outer loop
vertex -2.85156 -1.80965 0
vertex -2.37476 -1.96457 3
vertex -2.85156 -1.80965 3
endloop
endfacet
facet normal -0.3090139071020974 -0.9510575194053703 0
outer loop
vertex -2.37476 -1.96457 3
vertex -2.85156 -1.80965 0
vertex -2.37476 -1.96457 0
endloop
endfacet
facet normal -0.5358154154470901 -0.8443351470649924 0
outer loop
vertex -3.27485 -1.54103 0
vertex -2.85156 -1.80965 3
vertex -3.27485 -1.54103 3
endloop
endfacet
facet normal -0.5358154154470901 -0.8443351470649924 0
outer loop
vertex -2.85156 -1.80965 3
vertex -3.27485 -1.54103 0
vertex -2.85156 -1.80965 0
endloop
endfacet
facet normal -0.7289783654809283 -0.6845367358007562 0
outer loop
vertex -3.61803 -1.17557 0
vertex -3.27485 -1.54103 3
vertex -3.61803 -1.17557 3
endloop
endfacet
facet normal -0.7289783654809258 -0.6845367358007586 0
outer loop
vertex -3.27485 -1.54103 3
vertex -3.61803 -1.17557 0
vertex -3.27485 -1.54103 0
endloop
endfacet
facet normal -0.8763051759097705 -0.4817564101013562 0
outer loop
vertex -3.85955 -0.73625 0
vertex -3.61803 -1.17557 3
vertex -3.85955 -0.73625 3
endloop
endfacet
facet normal -0.8763051759097705 -0.4817564101013562 0
outer loop
vertex -3.61803 -1.17557 3
vertex -3.85955 -0.73625 0
vertex -3.61803 -1.17557 0
endloop
endfacet
facet normal -0.9685811207458311 -0.24869783379585342 0
outer loop
vertex -3.98423 -0.25067 0
vertex -3.85955 -0.73625 3
vertex -3.98423 -0.25067 3
endloop
endfacet
facet normal -0.9685811207458311 -0.24869783379585342 0
outer loop
vertex -3.85955 -0.73625 3
vertex -3.98423 -0.25067 0
vertex -3.85955 -0.73625 0
endloop
endfacet
facet normal -1 0 0
outer loop
vertex -3.98423 0.25067 0
vertex -3.98423 -0.25067 3
vertex -3.98423 0.25067 3
endloop
endfacet
facet normal -1 0 0
outer loop
vertex -3.98423 -0.25067 3
vertex -3.98423 0.25067 0
vertex -3.98423 -0.25067 0
endloop
endfacet
facet normal -0.9685811207458311 0.24869783379585342 0
outer loop
vertex -3.85955 0.73625 0
vertex -3.98423 0.25067 3
vertex -3.85955 0.73625 3
endloop
endfacet
facet normal -0.9685811207458311 0.24869783379585342 0
outer loop
vertex -3.98423 0.25067 3
vertex -3.85955 0.73625 0
vertex -3.98423 0.25067 0
endloop
endfacet
facet normal -0.8763051759097705 0.4817564101013562 0
outer loop
vertex -3.61803 1.17557 0
vertex -3.85955 0.73625 3
vertex -3.61803 1.17557 3
endloop
endfacet
facet normal -0.8763051759097705 0.4817564101013562 0
outer loop
vertex -3.85955 0.73625 3
vertex -3.61803 1.17557 0
vertex -3.85955 0.73625 0
endloop
endfacet
facet normal -0.7289783654809258 0.6845367358007586 0
outer loop
vertex -3.27485 1.54103 0
vertex -3.61803 1.17557 3
vertex -3.27485 1.54103 3
endloop
endfacet
facet normal -0.7289783654809283 0.6845367358007562 0
outer loop
vertex -3.61803 1.17557 3
vertex -3.27485 1.54103 0
vertex -3.61803 1.17557 0
endloop
endfacet
facet normal -0.5358154154470901 0.8443351470649924 0
outer loop
vertex -2.85156 1.80965 0
vertex -3.27485 1.54103 3
vertex -2.85156 1.80965 3
endloop
endfacet
facet normal -0.5358154154470901 0.8443351470649924 0
outer loop
vertex -3.27485 1.54103 3
vertex -2.85156 1.80965 0
vertex -3.27485 1.54103 0
endloop
endfacet
facet normal -0.3090139071020974 0.9510575194053703 0
outer loop
vertex -2.37476 1.96457 0
vertex -2.85156 1.80965 3
vertex -2.37476 1.96457 3
endloop
endfacet
facet normal -0.30901390710209675 0.9510575194053706 0
outer loop
vertex -2.85156 1.80965 3
vertex -2.37476 1.96457 0
vertex -2.85156 1.80965 0
endloop
endfacet
facet normal -0.06279305350789417 0.9980265690006228 0
outer loop
vertex -1.87442 1.99605 0
vertex -2.37476 1.96457 3
vertex -1.87442 1.99605 3
endloop
endfacet
facet normal -0.06279305350789417 0.9980265690006228 0
outer loop
vertex -2.37476 1.96457 3
vertex -1.87442 1.99605 0
vertex -2.37476 1.96457 0
endloop
endfacet
facet normal 0.1873815809918731 0.9822871999089605 0
outer loop
vertex -1.38197 1.90211 0
vertex -1.87442 1.99605 3
vertex -1.38197 1.90211 3
endloop
endfacet
facet normal 0.18738158099187288 0.9822871999089605 0
outer loop
vertex -1.87442 1.99605 3
vertex -1.38197 1.90211 0
vertex -1.87442 1.99605 0
endloop
endfacet
facet normal 0.42576725696895534 0.9048327154193374 0
outer loop
vertex -0.92835 1.68866 0
vertex -1.38197 1.90211 3
vertex -0.92835 1.68866 3
endloop
endfacet
facet normal 0.42576725696895534 0.9048327154193374 0
outer loop
vertex -1.38197 1.90211 3
vertex -0.92835 1.68866 0
vertex -1.38197 1.90211 0
endloop
endfacet
facet normal 0.6374276844345196 0.7705101862509323 0
outer loop
vertex -0.54206 1.36909 0
vertex -0.92835 1.68866 3
vertex -0.54206 1.36909 3
endloop
endfacet
facet normal 0.6374276844345195 0.7705101862509325 0
outer loop
vertex -0.92835 1.68866 3
vertex -0.54206 1.36909 0
vertex -0.92835 1.68866 0
endloop
endfacet
facet normal 0.8090180553293741 0.5877837920112104 0
outer loop
vertex -0.24739 0.96351 0
vertex -0.54206 1.36909 3
vertex -0.24739 0.96351 3
endloop
endfacet
facet normal 0.8090180553293741 0.5877837920112104 0
outer loop
vertex -0.54206 1.36909 3
vertex -0.24739 0.96351 0
vertex -0.54206 1.36909 0
endloop
endfacet
facet normal 0.9297723367601448 0.3681350320134991 0
outer loop
vertex -0.06283 0.49738 0
vertex -0.24739 0.96351 3
vertex -0.06283 0.49738 3
endloop
endfacet
facet normal 0.9297723367601448 0.36813503201349906 0
outer loop
vertex -0.24739 0.96351 3
vertex -0.06283 0.49738 0
vertex -0.24739 0.96351 0
endloop
endfacet
facet normal 0.9921156205448833 0.12532595689178297 0
outer loop
vertex 0 0 0
vertex -0.06283 0.49738 3
vertex 0 0 3
endloop
endfacet
facet normal 0.9921156205448833 0.12532595689178297 0
outer loop
vertex -0.06283 0.49738 3
vertex 0 0 0
vertex -0.06283 0.49738 0
endloop
endfacet
facet normal 0.9921156205448833 -0.12532595689178297 0
outer loop
vertex -0.06283 -0.49738 0
vertex 0 0 3
vertex -0.06283 -0.49738 3
endloop
endfacet
facet normal 0.9921156205448833 -0.12532595689178297 0
outer loop
vertex 0 0 3
vertex -0.06283 -0.49738 0
vertex 0 0 0
endloop
endfacet
facet normal 0.9297723367601448 -0.36813503201349906 0
outer loop
vertex -0.24739 -0.96351 0
vertex -0.06283 -0.49738 3
vertex -0.24739 -0.96351 3
endloop
endfacet
facet normal 0.9297723367601448 -0.3681350320134991 0
outer loop
vertex -0.06283 -0.49738 3
vertex -0.24739 -0.96351 0
vertex -0.06283 -0.49738 0
endloop
endfacet
facet normal 0.8090180553293741 -0.5877837920112104 0
outer loop
vertex -0.54206 -1.36909 0
vertex -0.24739 -0.96351 3
vertex -0.54206 -1.36909 3
endloop
endfacet
facet normal 0.8090180553293741 -0.5877837920112104 0
outer loop
vertex -0.24739 -0.96351 3
vertex -0.54206 -1.36909 0
vertex -0.24739 -0.96351 0
endloop
endfacet
facet normal 0.6374276844345195 -0.7705101862509325 0
outer loop
vertex -0.92835 -1.68866 0
vertex -0.54206 -1.36909 3
vertex -0.92835 -1.68866 3
endloop
endfacet
facet normal 0.6374276844345196 -0.7705101862509323 0
outer loop
vertex -0.54206 -1.36909 3
vertex -0.92835 -1.68866 0
vertex -0.54206 -1.36909 0
endloop
endfacet
facet normal 0.42576725696895534 -0.9048327154193374 0
outer loop
vertex -1.38197 -1.90211 0
vertex -0.92835 -1.68866 3
vertex -1.38197 -1.90211 3
endloop
endfacet
facet normal 0.42576725696895534 -0.9048327154193374 0
outer loop
vertex -0.92835 -1.68866 3
vertex -1.38197 -1.90211 0
vertex -0.92835 -1.68866 0
endloop
endfacet
facet normal 0.18738158099187288 -0.9822871999089605 0
outer loop
vertex -1.87442 -1.99605 0
vertex -1.38197 -1.90211 3
vertex -1.87442 -1.99605 3
endloop
endfacet
facet normal 0.1873815809918731 -0.9822871999089605 0
outer loop
vertex -1.38197 -1.90211 3
vertex -1.87442 -1.99605 0
vertex -1.38197 -1.90211 0
endloop
endfacet
facet normal 0 0 1
outer loop
vertex -2.37476 1.96457 3
vertex -1.38197 1.90211 3
vertex -1.87442 1.99605 3
endloop
endfacet
facet normal 0 0 1
outer loop
vertex -2.85156 1.80965 3
vertex -1.38197 1.90211 3
vertex -2.37476 1.96457 3
endloop
endfacet
facet normal 0 0 1
outer loop
vertex -2.85156 1.80965 3
vertex -0.92835 1.68866 3
vertex -1.38197 1.90211 3
endloop
endfacet
facet normal 0 0 1
outer loop
vertex -3.27485 1.54103 3
vertex -0.92835 1.68866 3
vertex -2.85156 1.80965 3
endloop
endfacet
facet normal 0 0 1
outer loop
vertex -3.27485 1.54103 3
vertex -0.54206 1.36909 3
vertex -0.92835 1.68866 3
endloop
endfacet
facet normal 0 0 1
outer loop
vertex -3.61803 1.17557 3
vertex -0.54206 1.36909 3
vertex -3.27485 1.54103 3
endloop
endfacet
facet normal 0 0 0.9999999999999999
outer loop
vertex -3.61803 1.17557 3
vertex -0.24739 0.96351 3
vertex -0.54206 1.36909 3
endloop
endfacet
facet normal 1.4493713603186883e-16 0 1
outer loop
vertex -3.85955 0.73625 3
vertex -0.24739 0.96351 3
vertex -3.61803 1.17557 3
endloop
endfacet
facet normal 0 0 0.9999999999999999
outer loop
vertex -3.85955 0.73625 3
vertex -0.06283 0.49738 3
vertex -0.24739 0.96351 3
endloop
endfacet
facet normal 0 0 0.9999999999999999
outer loop
vertex -3.98423 0.25067 3
vertex -0.06283 0.49738 3
vertex -3.85955 0.73625 3
endloop
endfacet
facet normal 0 0 1
outer loop
vertex -3.98423 0.25067 3
vertex 0 0 3
vertex -0.06283 0.49738 3
endloop
endfacet
facet normal 0 0 1
outer loop
vertex -3.98423 -0.25067 3
vertex 0 0 3
vertex -3.98423 0.25067 3
endloop
endfacet
facet normal 0 0 1
outer loop
vertex -3.98423 -0.25067 3
vertex -0.06283 -0.49738 3
vertex 0 0 3
endloop
endfacet
facet normal 0 0 0.9999999999999999
outer loop
vertex -3.85955 -0.73625 3
vertex -0.06283 -0.49738 3
vertex -3.98423 -0.25067 3
endloop
endfacet
facet normal 0 0 0.9999999999999999
outer loop
vertex -3.85955 -0.73625 3
vertex -0.24739 -0.96351 3
vertex -0.06283 -0.49738 3
endloop
endfacet
facet normal 1.4493713603186883e-16 0 1
outer loop
vertex -3.61803 -1.17557 3
vertex -0.24739 -0.96351 3
vertex -3.85955 -0.73625 3
endloop
endfacet
facet normal 0 0 0.9999999999999999
outer loop
vertex -3.61803 -1.17557 3
vertex -0.54206 -1.36909 3
vertex -0.24739 -0.96351 3
endloop
endfacet
facet normal 0 0 1
outer loop
vertex -3.27485 -1.54103 3
vertex -0.54206 -1.36909 3
vertex -3.61803 -1.17557 3
endloop
endfacet
facet normal 0 0 1
outer loop
vertex -3.27485 -1.54103 3
vertex -0.92835 -1.68866 3
vertex -0.54206 -1.36909 3
endloop
endfacet
facet normal 0 0 1
outer loop
vertex -2.85156 -1.80965 3
vertex -0.92835 -1.68866 3
vertex -3.27485 -1.54103 3
endloop
endfacet
facet normal 0 0 1
outer loop
vertex -2.85156 -1.80965 3
vertex -1.38197 -1.90211 3
vertex -0.92835 -1.68866 3
endloop
endfacet
facet normal 0 0 1
outer loop
vertex -2.37476 -1.96457 3
vertex -1.38197 -1.90211 3
vertex -2.85156 -1.80965 3
endloop
endfacet
facet normal 0 0 1
outer loop
vertex -1.38197 -1.90211 3
vertex -2.37476 -1.96457 3
vertex -1.87442 -1.99605 3
endloop
endfacet
facet normal 0 0 -1
outer loop
vertex -0.06283 -0.49738 0
vertex -0.06283 0.49738 0
vertex 0 0 0
endloop
endfacet
facet normal 0 0 -1
outer loop
vertex -0.06283 -0.49738 0
vertex -0.24739 0.96351 0
vertex -0.06283 0.49738 0
endloop
endfacet
facet normal 0 0 -1
outer loop
vertex -0.24739 -0.96351 0
vertex -0.24739 0.96351 0
vertex -0.06283 -0.49738 0
endloop
endfacet
facet normal 0 0 -1
outer loop
vertex -0.24739 -0.96351 0
vertex -0.54206 1.36909 0
vertex -0.24739 0.96351 0
endloop
endfacet
facet normal 0 0 -1
outer loop
vertex -0.54206 -1.36909 0
vertex -0.54206 1.36909 0
vertex -0.24739 -0.96351 0
endloop
endfacet
facet normal 0 0 -1
outer loop
vertex -0.92835 -1.68866 0
vertex -0.54206 1.36909 0
vertex -0.54206 -1.36909 0
endloop
endfacet
facet normal 0 0 -1
outer loop
vertex -0.92835 -1.68866 0
vertex -0.92835 1.68866 0
vertex -0.54206 1.36909 0
endloop
endfacet
facet normal 0 0 -1
outer loop
vertex -0.92835 -1.68866 0
vertex -1.38197 1.90211 0
vertex -0.92835 1.68866 0
endloop
endfacet
facet normal 0 0 -1
outer loop
vertex -1.38197 -1.90211 0
vertex -1.38197 1.90211 0
vertex -0.92835 -1.68866 0
endloop
endfacet
facet normal 0 0 -0.9999999999999999
outer loop
vertex -1.38197 -1.90211 0
vertex -1.87442 1.99605 0
vertex -1.38197 1.90211 0
endloop
endfacet
facet normal 0 0 -0.9999999999999999
outer loop
vertex -1.87442 -1.99605 0
vertex -1.87442 1.99605 0
vertex -1.38197 -1.90211 0
endloop
endfacet
facet normal 0 0 -1
outer loop
vertex -2.37476 -1.96457 0
vertex -1.87442 1.99605 0
vertex -1.87442 -1.99605 0
endloop
endfacet
facet normal 0 0 -1
outer loop
vertex -2.37476 -1.96457 0
vertex -2.37476 1.96457 0
vertex -1.87442 1.99605 0
endloop
endfacet
facet normal 0 0 -1
outer loop
vertex -2.85156 -1.80965 0
vertex -2.37476 1.96457 0
vertex -2.37476 -1.96457 0
endloop
endfacet
facet normal 0 0 -1
outer loop
vertex -2.85156 -1.80965 0
vertex -2.85156 1.80965 0
vertex -2.37476 1.96457 0
endloop
endfacet
facet normal 0 0 -1
outer loop
vertex -3.27485 -1.54103 0
vertex -2.85156 1.80965 0
vertex -2.85156 -1.80965 0
endloop
endfacet
facet normal 0 0 -1
outer loop
vertex -3.27485 -1.54103 0
vertex -3.27485 1.54103 0
vertex -2.85156 1.80965 0
endloop
endfacet
facet normal 0 0 -1
outer loop
vertex -3.27485 -1.54103 0
vertex -3.61803 1.17557 0
vertex -3.27485 1.54103 0
endloop
endfacet
facet normal 0 0 -1
outer loop
vertex -3.61803 -1.17557 0
vertex -3.61803 1.17557 0
vertex -3.27485 -1.54103 0
endloop
endfacet
facet normal 0 0 -1
outer loop
vertex -3.85955 -0.73625 0
vertex -3.61803 1.17557 0
vertex -3.61803 -1.17557 0
endloop
endfacet
facet normal 0 0 -1
outer loop
vertex -3.85955 -0.73625 0
vertex -3.85955 0.73625 0
vertex -3.61803 1.17557 0
endloop
endfacet
facet normal 0 0 -0.9999999999999999
outer loop
vertex -3.85955 -0.73625 0
vertex -3.98423 0.25067 0
vertex -3.85955 0.73625 0
endloop
endfacet
facet normal 0 0 -1
outer loop
vertex -3.98423 0.25067 0
vertex -3.85955 -0.73625 0
vertex -3.98423 -0.25067 0
endloop
endfacet
facet normal -1 0 0
outer loop
vertex 0 3 0
vertex 0 0 3
vertex 0 3 3
endloop
endfacet
facet normal -1 0 0
outer loop
vertex 0 0 3
vertex 0 3 0
vertex 0 0 0
endloop
endfacet
facet normal 0 1 0
outer loop
vertex 0 3 0
vertex 50 3 3
vertex 50 3 0
endloop
endfacet
facet normal 0 1 0
outer loop
vertex 50 3 3
vertex 0 3 0
vertex 0 3 3
endloop
endfacet
facet normal 1 0 0
outer loop
vertex 50 0 0
vertex 50 3 3
vertex 50 0 3
endloop
endfacet
facet normal 1 0 0
outer loop
vertex 50 3 3
vertex 50 0 0
vertex 50 3 0
endloop
endfacet
facet normal 0 -1 0
outer loop
vertex 0 0 3
vertex 50 0 0
vertex 50 0 3
endloop
endfacet
facet normal 0 -1 0
outer loop
vertex 50 0 0
vertex 0 0 3
vertex 0 0 0
endloop
endfacet
facet normal 0 0 1
outer loop
vertex 0 3 3
vertex 50 0 3
vertex 50 3 3
endloop
endfacet
facet normal 0 0 1
outer loop
vertex 50 0 3
vertex 0 3 3
vertex 0 0 3
endloop
endfacet
facet normal 0 0 -1
outer loop
vertex 50 0 0
vertex 0 3 0
vertex 50 3 0
endloop
endfacet
facet normal 0 0 -1
outer loop
vertex 0 3 0
vertex 50 0 0
vertex 0 0 0
endloop
endfacet
endsolid JSxCAD
