<?xml version="1.0" encoding="UTF-8"?>
<!-- Generated by jsxcad -->
<!DOCTYPE svg PUBLIC "-//W3C//DTD SVG 1.1 Tiny//EN" "http://www.w3.org/Graphics/SVG/1.1/DTD/svg11-tiny.dtd">
<svg viewBox="-250 -250 500 500" width="500" height="500" xmlns="http://www.w3.org/2000/svg"><path d="M6.70004183303261,0.10413249425225012L-1.4545564520073831e-15,0.10413249425223671L6.635618353868834,0.10413249425225021z" style="fill:rgb(127,0,127)"/><path d="M-1.4545564520073831e-15,0.10413249425223671L7.759139791720918e-16,6.844104189611635L7.687189054864627e-16,6.779296727920705z" style="fill:rgb(255,127,127)"/><path d="M-0.8447550298855024,161.91900744179551L5.192236984570128e-14,160.36307123734L-0.8366322603606312,160.36307123734z" style="fill:rgb(127,254,127)"/><path d="M-2.4811860482518258,162.3391757602803L-0.8366322603606312,160.36307123734L-2.4573281219765826,160.77919935132505z" style="fill:rgb(95,250,127)"/><path d="M-3.9617153543731614,163.15311939767253L-2.4573281219765826,160.77919935132505L-3.9236213467788787,161.58531636546257z" style="fill:rgb(66,239,127)"/><path d="M-5.19331590939647,164.30968502006758L-3.9236213467788787,161.58531636546257L-5.143379399638177,162.73076081843465z" style="fill:rgb(40,220,127)"/><path d="M-6.0986017866844024,165.73621144165972L-5.143379399638177,162.73076081843465L-6.039960461129826,164.1435702095263z" style="fill:rgb(19,195,127)"/><path d="M5.192236984570128e-14,160.36307123734L5.465343921890157e-14,168.60604238532716L5.4128182604949134e-14,166.9858057479669z" style="fill:rgb(255,127,127)"/><path d="M-6.620690123817066,167.3430548295117L-6.039960461129826,164.1435702095263L-6.5570286292878235,165.73496269104677z" style="fill:rgb(6,166,127)"/><path d="M-6.726776635611857,169.02925808808095L-6.5570286292878235,165.73496269104677L-6.662095051871393,167.4049519383686z" style="fill:rgb(0,135,127)"/><path d="M5.465343921890157e-14,168.60604238532716L6.635724695610806,166.9858057479669L5.4128182604949134e-14,166.9858057479669z" style="fill:rgb(127,254,127)"/><path d="M6.700150249703372,168.60604238532716L6.662095051871504,167.4049519383686L6.635724695610806,166.9858057479669z" style="fill:rgb(254,135,127)"/><path d="M-1.4545564520073831e-15,0.10413249425223671L6.70004183303261,0.10413249425225012L-1.4689465806243311e-15,0.10413249425223647z" style="fill:rgb(127,0,127)"/><path d="M7.759139791720918e-16,6.844104189611635L-1.4545564520073831e-15,0.10413249425223671L-1.4689465806243311e-15,0.10413249425223647z" style="fill:rgb(255,127,127)"/><path d="M5.192236984570128e-14,160.36307123734L-0.8447550298855024,161.91900744179551L5.2426210131715573e-14,161.91900744179551z" style="fill:rgb(127,254,127)"/><path d="M-0.8366322603606312,160.36307123734L-2.4811860482518258,162.3391757602803L-0.8447550298855024,161.91900744179551z" style="fill:rgb(95,250,127)"/><path d="M-2.4573281219765826,160.77919935132505L-3.9617153543731614,163.15311939767253L-2.4811860482518258,162.3391757602803z" style="fill:rgb(66,239,127)"/><path d="M-3.9236213467788787,161.58531636546257L-5.19331590939647,164.30968502006758L-3.9617153543731614,163.15311939767253z" style="fill:rgb(40,220,127)"/><path d="M5.465343921890157e-14,168.60604238532716L5.192236984570128e-14,160.36307123734L5.2426210131715573e-14,161.91900744179551z" style="fill:rgb(255,127,127)"/><path d="M-5.143379399638177,162.73076081843465L-6.0986017866844024,165.73621144165972L-5.19331590939647,164.30968502006758z" style="fill:rgb(19,195,127)"/><path d="M-6.039960461129826,164.1435702095263L-6.620690123817066,167.3430548295117L-6.0986017866844024,165.73621144165972z" style="fill:rgb(6,166,127)"/><path d="M-6.5570286292878235,165.73496269104677L-6.726776635611857,169.02925808808095L-6.620690123817066,167.3430548295117z" style="fill:rgb(0,135,127)"/><path d="M6.635724695610806,166.9858057479669L5.465343921890157e-14,168.60604238532716L6.700150249703372,168.60604238532716z" style="fill:rgb(127,254,127)"/><path d="M6.662095051871504,167.4049519383686L6.700150249703372,168.60604238532716L6.726776635611969,169.02925808808095z" style="fill:rgb(254,135,127)"/><path d="M-0.8447413607192583,-6.582684033537704L-1.4689465806243311e-15,0.10413249425223647L0.8447413607192539,-6.582684033537704zM-2.4811458996355387,-6.162526902217253L-1.4689465806243311e-15,0.10413249425223647L-0.8447413607192583,-6.582684033537704zM0.8447413607192539,-6.582684033537704L6.70004183303261,0.10413249425225012L2.4811458996355342,-6.162526902217254zM-3.961651248980798,-5.348612819677917L-1.4689465806243311e-15,0.10413249425223647L-2.4811458996355387,-6.162526902217253zM2.4811458996355342,-6.162526902217254L6.70004183303261,0.10413249425225012L3.9616512489807936,-5.3486128196779195zM-5.193231875194784,-4.192082617605311L-1.4689465806243311e-15,0.10413249425223647L-3.961651248980798,-5.348612819677917zM3.9616512489807936,-5.3486128196779195L6.70004183303261,0.10413249425225012L5.193231875194781,-4.1920826176053145zM-6.098503103835081,-2.7656051736584506L-1.4689465806243311e-15,0.10413249425223647L-5.193231875194784,-4.192082617605311zM5.193231875194781,-4.1920826176053145L6.70004183303261,0.10413249425225012L6.09850310383508,-2.7656051736584546zM-1.4689465806243311e-15,0.10413249425223647L6.70004183303261,0.10413249425225012L0.8447413607192539,-6.582684033537704zM-6.620582992923814,-1.158811275946571L-1.4689465806243311e-15,0.10413249425223647L-6.098503103835081,-2.7656051736584506zM6.09850310383508,-2.7656051736584546L6.70004183303261,0.10413249425225012L6.620582992923814,-1.1588112759465754zM-1.4689465806243311e-15,0.10413249425223647L-6.620582992923814,-1.158811275946571L-6.70004183303261,0.10413249425225451zM6.70004183303261,0.10413249425225012L-1.4689465806243311e-15,0.10413249425223647L-1.4689465806243254e-15,0.10413249425225232zM-6.70004183303261,0.10413249425225451L-6.410091261479809,2.186897413550837L-1.4689465806243254e-15,0.10413249425225232zM-6.410091261479809,2.186897413550837L-6.70004183303261,0.10413249425225451L-6.726667788091742,0.5273385683660714zM-1.4689465806243254e-15,0.10413249425225232L-6.410091261479809,2.186897413550837L-5.690744588968543,3.7155888900460528zM-1.4689465806243254e-15,0.10413249425225232L-5.690744588968543,3.7155888900460528L-4.613827422906039,5.017359499978786zM-1.4689465806243254e-15,0.10413249425225232L-4.613827422906039,5.017359499978786L-3.2470058717979318,6.010414059221134zM-1.4689465806243254e-15,0.10413249425225232L-3.2470058717979318,6.010414059221134L-1.6761627764360558,6.632355488984551zM-1.4689465806243254e-15,0.10413249425225232L-1.6761627764360558,6.632355488984551L7.759139791720918e-16,6.844104189611635zM5.465343921890157e-14,168.60604238532716L10.109950948827466,0.10413249425225705L-1.4689465806243311e-15,0.10413249425223647zM10.109950948827466,0.10413249425225705L5.465343921890157e-14,168.60604238532716L10.110114542913976,168.60604238532716zM-0.8447550298855024,161.91900744179551L5.465343921890157e-14,168.60604238532716L5.2426210131715573e-14,161.91900744179551zM-2.4811860482518258,162.3391757602803L5.465343921890157e-14,168.60604238532716L-0.8447550298855024,161.91900744179551zM-3.9617153543731614,163.15311939767253L5.465343921890157e-14,168.60604238532716L-2.4811860482518258,162.3391757602803zM-5.19331590939647,164.30968502006758L5.465343921890157e-14,168.60604238532716L-3.9617153543731614,163.15311939767253zM-6.0986017866844024,165.73621144165972L5.465343921890157e-14,168.60604238532716L-5.19331590939647,164.30968502006758zM-6.620690123817066,167.3430548295117L5.465343921890157e-14,168.60604238532716L-6.0986017866844024,165.73621144165972zM5.465343921890157e-14,168.60604238532716L-6.620690123817066,167.3430548295117L-6.70015024970326,168.60604238532716zM-6.70015024970326,168.60604238532716L-6.4101949863392065,170.68887591490352L6.700150249703372,168.60604238532716zM6.700150249703372,168.60604238532716L6.41019498633932,170.68887591490352L6.726776635611969,169.02925808808095zM-6.4101949863392065,170.68887591490352L-6.70015024970326,168.60604238532716L-6.726776635611857,169.02925808808095zM6.700150249703372,168.60604238532716L5.690836673739432,172.21762128404256L6.41019498633932,170.68887591490352zM6.700150249703372,168.60604238532716L-6.4101949863392065,170.68887591490352L-5.690836673739319,172.21762128404256zM6.700150249703372,168.60604238532716L4.6139020815539045,173.5194348270087L5.690836673739432,172.21762128404256zM6.700150249703372,168.60604238532716L-5.690836673739319,172.21762128404256L-4.61390208155379,173.5194348270087zM6.700150249703372,168.60604238532716L3.2470584132258153,174.51251429329432L4.6139020815539045,173.5194348270087zM6.700150249703372,168.60604238532716L-4.61390208155379,173.5194348270087L-3.247058413225699,174.51251429329432zM6.700150249703372,168.60604238532716L1.6761898992679938,175.13448268080924L3.2470584132258153,174.51251429329432zM6.700150249703372,168.60604238532716L-3.247058413225699,174.51251429329432L-1.6761898992678774,175.13448268080924zM6.700150249703372,168.60604238532716L5.83949709913339e-14,175.34623220811284L1.6761898992679938,175.13448268080924zM6.700150249703372,168.60604238532716L-1.6761898992678774,175.13448268080924L5.83949709913339e-14,175.34623220811284z" style="fill:rgb(127,127,254)"/></svg>
